<?xml version="1.0" encoding="utf-8"?>
<!-- Generator: Adobe Illustrator 22.1.0, SVG Export Plug-In . SVG Version: 6.00 Build 0)  -->
<svg version="1.1" id="Слой_1" xmlns="http://www.w3.org/2000/svg" xmlns:xlink="http://www.w3.org/1999/xlink" x="0px" y="0px"
	 viewBox="0 0 188 17" style="enable-background:new 0 0 188 17;" xml:space="preserve">
<style type="text/css">
	.st0{fill:#002941;}
</style>
<path class="st0" d="M82.7,6.2c0,1.3-1,2.2-2.7,2.2h-3.5V3.9h3.4C81.6,3.9,82.7,4.7,82.7,6.2L82.7,6.2z M86.6,16.6l-3.8-5.6
	c2-0.7,3.4-2.3,3.4-4.9v0c0-3.2-2.2-5.2-5.9-5.2H73v15.7h3.5v-5h2.7l3.4,5H86.6z M65.7,8.7c0,2.7-1.9,4.9-4.7,4.9
	c-2.8,0-4.8-2.2-4.8-4.9v0c0-2.7,1.9-4.9,4.7-4.9C63.7,3.7,65.7,6,65.7,8.7L65.7,8.7z M69.3,8.7L69.3,8.7c0-4.5-3.5-8.1-8.3-8.1
	s-8.4,3.7-8.4,8.1v0c0,4.5,3.5,8.1,8.3,8.1C65.7,16.8,69.3,13.2,69.3,8.7 M50.3,14l-2.2-2.2c-1.2,1.1-2.3,1.8-4.1,1.8
	c-2.7,0-4.6-2.2-4.6-4.9v0c0-2.7,1.9-4.9,4.6-4.9c1.6,0,2.8,0.7,4,1.8L50.1,3c-1.5-1.4-3.2-2.4-6.2-2.4c-4.8,0-8.2,3.7-8.2,8.1v0
	c0,4.5,3.4,8.1,8.1,8.1C46.8,16.8,48.6,15.7,50.3,14 M33.4,14l-2.2-2.2c-1.2,1.1-2.3,1.8-4.1,1.8c-2.7,0-4.6-2.2-4.6-4.9v0
	c0-2.7,1.9-4.9,4.6-4.9c1.6,0,2.8,0.7,4,1.8L33.3,3c-1.5-1.4-3.2-2.4-6.2-2.4c-4.8,0-8.2,3.7-8.2,8.1v0c0,4.5,3.4,8.1,8.1,8.1
	C30,16.8,31.8,15.7,33.4,14 M11.2,10H7.1l2.1-5.1L11.2,10z M17.5,16.6L10.8,0.7H7.6L0.9,16.6h3.5L5.8,13h6.7l1.4,3.5H17.5z"/>
<path class="st0" d="M188,11.9L188,11.9c0-2.8-1.8-3.9-5-4.8c-2.7-0.7-3.4-1-3.4-2.1v0c0-0.8,0.7-1.4,2-1.4c1.3,0,2.7,0.6,4.1,1.6
	l1.8-2.6c-1.6-1.3-3.6-2-5.8-2c-3.2,0-5.5,1.9-5.5,4.7v0c0,3.1,2,4,5.2,4.8c2.6,0.7,3.2,1.1,3.2,2v0c0,0.9-0.9,1.5-2.3,1.5
	c-1.8,0-3.3-0.7-4.7-1.9l-2,2.5c1.9,1.7,4.3,2.5,6.7,2.5C185.6,16.8,188,15,188,11.9 M173.3,16.6v-3.1h-7.1V0.8h-3.5v15.7H173.3z
	 M159,16.6v-3.1h-8.5v-3.3h7.4V7.1h-7.4V3.9h8.4V0.8H147v15.7H159z M143.7,4V0.8h-13V4h4.8v12.5h3.5V4H143.7z M125.1,8.7
	c0,2.7-1.9,4.9-4.7,4.9c-2.8,0-4.8-2.2-4.8-4.9v0c0-2.7,1.9-4.9,4.7-4.9C123.1,3.7,125.1,6,125.1,8.7L125.1,8.7z M128.7,8.7
	L128.7,8.7c0-4.5-3.5-8.1-8.3-8.1c-4.9,0-8.4,3.7-8.4,8.1v0c0,4.5,3.5,8.1,8.3,8.1C125.2,16.8,128.7,13.2,128.7,8.7 M108.2,16.6V0.8
	h-3.5V7h-7.9V0.8h-3.5v15.7h3.5v-6.3h7.9v6.3H108.2z"/>
</svg>
