<?xml version="1.0" encoding="utf-8"?>
<!-- Generator: Adobe Illustrator 22.1.0, SVG Export Plug-In . SVG Version: 6.00 Build 0)  -->
<svg version="1.1" id="Слой_1" xmlns="http://www.w3.org/2000/svg" xmlns:xlink="http://www.w3.org/1999/xlink" x="0px" y="0px"
	 viewBox="0 0 30 14" style="enable-background:new 0 0 30 14;" xml:space="preserve">
<style type="text/css">
	.st0{fill:#DF9B15;}
</style>
<path class="st0" d="M0.1,13.7c0,0.2,0.9,0.2,1.8,0.2c3.3,0,6.6-0.3,9.7-1c4.2-1,5.3-2.5,7.6-3.8c4.8-2.7,10.8-2.2,10.8-2.7
	c0-0.1-0.1-0.2-1.8-0.6c-0.2-0.6-1-1.1-1.8-1.1c-2,0-5.1,2.3-8,2.3c-0.3,0-0.6,0-0.9-0.1c-1.2-2.2-3.8-4.1-7.1-4.5
	C8.5,2.2,7.1,2,6.1,1.8C2.3,1.1,1.3,0.1,0.9,0.1c-0.1,0-0.1,0.1-0.1,0.2C0.8,1,2,3,4.1,5.3C5.4,6.8,7.7,9,7.7,10.1
	c0,0.6-1.3,1.3-3.7,2.3C1.2,13.5,0.1,13.5,0.1,13.7"/>
</svg>
