<?xml version="1.0" encoding="utf-8"?>
<!-- Generator: Adobe Illustrator 22.1.0, SVG Export Plug-In . SVG Version: 6.00 Build 0)  -->
<svg version="1.1" id="Слой_1" xmlns="http://www.w3.org/2000/svg" xmlns:xlink="http://www.w3.org/1999/xlink" x="0px" y="0px"
	 viewBox="0 0 20 20" style="enable-background:new 0 0 20 20;" xml:space="preserve">
<style type="text/css">
	.st0{fill:#002F5F;}
</style>
<path class="st0" d="M9.9,6.1C8,6.1,6.4,7.6,6.4,9.5c0,1.9,1.5,3.4,3.4,3.5c1.9,0,3.5-1.5,3.5-3.4C13.3,7.7,11.8,6.1,9.9,6.1"/>
<path class="st0" d="M15.7,4.8c-0.6,0-1-0.5-1-1c0-0.6,0.5-1,1-1c0.6,0,1,0.5,1,1C16.8,4.3,16.3,4.8,15.7,4.8 M9.8,14.3
	C7.2,14.3,5,12.2,5,9.5c0-2.7,2.2-4.8,4.8-4.8c2.7,0,4.8,2.2,4.8,4.8C14.7,12.2,12.5,14.3,9.8,14.3 M19.4,4.3c0-2.4-1.9-4.3-4.3-4.3
	C11.6,0,8.1,0,4.6,0C2.2,0,0.3,1.9,0.3,4.3c0,3.5,0,7,0,10.5c0,2.4,1.9,4.3,4.3,4.3c3.5,0,7,0,10.6,0c2.4,0,4.3-1.9,4.3-4.3
	c0-1.7,0-3.5,0-5.2c0-1.7,0-3.4,0-5.2C19.4,4.3,19.4,4.3,19.4,4.3"/>
</svg>
