<?xml version="1.0" encoding="iso-8859-1"?>
<!-- Generator: Adobe Illustrator 19.0.0, SVG Export Plug-In . SVG Version: 6.00 Build 0)  -->
<svg version="1.1" id="Capa_1" xmlns="http://www.w3.org/2000/svg" xmlns:xlink="http://www.w3.org/1999/xlink" x="0px" y="0px"
	 viewBox="0 0 512.001 512.001" style="enable-background:new 0 0 512.001 512.001;" xml:space="preserve">
<g>
	<g>
		<path d="M413.397,154.502L267.831,73.85c-7.407-4.103-16.252-4.103-23.659,0c0,0.001,0,0.001,0,0.001L98.605,154.501
			c-7.76,4.3-12.58,12.481-12.58,21.352v160.291c0,8.871,4.82,17.053,12.58,21.352l145.567,80.652
			c3.703,2.053,7.766,3.078,11.829,3.078c4.062,0,8.126-1.026,11.83-3.078l145.566-80.651c7.76-4.3,12.58-12.481,12.58-21.352
			V175.854C425.978,166.984,421.157,158.802,413.397,154.502z M253.863,91.342c1.339-0.744,2.939-0.742,4.276,0l58.126,32.205
			l-140.19,77.673l-59.488-33.82L253.863,91.342z M246.004,416.3l-137.706-76.296c-1.404-0.776-2.276-2.255-2.276-3.859V184.395
			l64.967,36.935c0.016,0.009,0.032,0.018,0.048,0.027l74.967,42.62V416.3z M196.441,212.798l140.456-77.82l60.403,33.465
			l-141.234,78.252L196.441,212.798z M405.979,336.144c0.001,1.605-0.871,3.084-2.275,3.862l-137.706,76.295V264.052l139.981-77.557
			V336.144z"/>
	</g>
</g>
<g>
	<g>
		<path d="M185.824,254.478l-52.982-29.179c-3.096-1.703-6.864-1.648-9.91,0.15c-3.045,1.799-4.912,5.072-4.912,8.608v42.269
			c0,3.644,1.983,7,5.175,8.759l52.982,29.179c1.503,0.827,3.164,1.24,4.823,1.24c1.761,0,3.52-0.465,5.086-1.391
			c3.045-1.798,4.912-5.071,4.912-8.607v-42.269C190.999,259.592,189.017,256.236,185.824,254.478z M171.002,288.584l-32.984-18.165
			v-19.439l32.984,18.166V288.584z"/>
	</g>
</g>
<g>
	<g>
		<path d="M227.534,360.19l-26.49-14.59c-4.836-2.664-10.918-0.902-13.582,3.935c-2.664,4.837-0.902,10.917,3.935,13.582
			l26.49,14.59c1.53,0.843,3.184,1.242,4.814,1.242c3.526,0,6.945-1.87,8.768-5.177C234.133,368.935,232.372,362.854,227.534,360.19
			z"/>
	</g>
</g>
<g>
	<g>
		<path d="M465.259,108.542l18.448-18.448c2.859-2.86,3.714-7.16,2.168-10.896c-1.548-3.735-5.193-6.172-9.238-6.172h-49.66
			c-5.521,0-9.999,4.477-9.999,9.999v49.66c0,4.044,2.437,7.69,6.172,9.238c1.237,0.512,2.537,0.761,3.824,0.761
			c2.603,0,5.159-1.016,7.072-2.929l16.845-16.845c63.339,92.606,52.012,219.896-28.038,299.944
			c-68.85,68.849-171.091,88.406-260.47,49.82c-5.07-2.188-10.955,0.146-13.143,5.216c-2.189,5.07,0.146,10.954,5.216,13.143
			c32.223,13.91,66.603,20.968,101.324,20.968c15.435,0,30.943-1.396,46.348-4.204c51.256-9.345,97.89-33.827,134.865-70.802
			c43.767-43.768,70.181-101.843,74.378-163.526C515.372,214.647,499.021,156.357,465.259,108.542z M436.976,108.544V93.022h15.522
			L436.976,108.544z"/>
	</g>
</g>
<g>
	<g>
		<path d="M133.606,457.809l-0.39-0.238c-4.716-2.873-10.867-1.378-13.74,3.34c-2.872,4.716-1.377,10.867,3.34,13.74l0.39,0.238
			c1.624,0.989,3.419,1.46,5.19,1.46c3.374,0,6.666-1.707,8.55-4.799C139.816,466.833,138.322,460.682,133.606,457.809z"/>
	</g>
</g>
<g>
	<g>
		<path d="M390.55,38.186l-0.495-0.306c-4.703-2.895-10.861-1.429-13.756,3.275s-1.427,10.862,3.276,13.757l0.495,0.306
			c1.635,1.006,3.443,1.484,5.23,1.484c3.357,0,6.637-1.69,8.525-4.759C396.719,47.238,395.252,41.08,390.55,38.186z"/>
	</g>
</g>
<g>
	<g>
		<path d="M356.985,20.726C310.491,0.787,259.517-4.907,209.577,4.257c-51.139,9.386-97.671,33.849-134.57,70.748
			C31.239,118.773,4.825,176.848,0.629,238.531c-3.999,58.82,12.352,117.111,46.114,164.926l-18.448,18.448
			c-2.859,2.86-3.714,7.16-2.168,10.896c1.548,3.735,5.193,6.172,9.238,6.172h49.66c5.521,0,9.999-4.477,9.999-9.999v-49.66
			c0.001-4.044-2.436-7.69-6.171-9.238c-3.737-1.546-8.038-0.691-10.897,2.168L61.11,389.09
			C-2.23,296.484,9.098,169.194,89.147,89.145c68.672-68.673,170.71-88.317,259.956-50.041c5.074,2.177,10.953-0.174,13.13-5.248
			C364.41,28.782,362.061,22.903,356.985,20.726z M75.025,403.455v15.522H59.504L75.025,403.455z"/>
	</g>
</g>
<g>
</g>
<g>
</g>
<g>
</g>
<g>
</g>
<g>
</g>
<g>
</g>
<g>
</g>
<g>
</g>
<g>
</g>
<g>
</g>
<g>
</g>
<g>
</g>
<g>
</g>
<g>
</g>
<g>
</g>
</svg>
